<svg width="56" height="56" viewBox="0 0 56 56" fill="none" xmlns="http://www.w3.org/2000/svg">
  <path d="M12 16 L24 16 Q28 16 28 20 L28 36 Q28 40 32 40 L44 40" stroke="#cbd5e1" stroke-width="2" stroke-dasharray="4 3" fill="none"/>
  <rect x="4" y="10" width="12" height="12" rx="3" fill="#94a3b8"/>
  <rect x="7" y="13.5" width="6" height="1.5" rx="0.75" fill="#ffffff"/>
  <rect x="7" y="17" width="4" height="1.5" rx="0.75" fill="#ffffff" opacity="0.6"/>
  <rect x="19" y="23" width="18" height="18" rx="4" fill="#0f172a"/>
  <circle cx="28" cy="32" r="5" stroke="#ffffff" stroke-width="1.5" fill="none"/>
  <circle cx="28" cy="32" r="1.5" fill="#ffffff"/>
  <line x1="28" y1="25.5" x2="28" y2="27" stroke="#ffffff" stroke-width="1.5" stroke-linecap="round"/>
  <line x1="28" y1="37" x2="28" y2="38.5" stroke="#ffffff" stroke-width="1.5" stroke-linecap="round"/>
  <line x1="21.5" y1="32" x2="23" y2="32" stroke="#ffffff" stroke-width="1.5" stroke-linecap="round"/>
  <line x1="33" y1="32" x2="34.5" y2="32" stroke="#ffffff" stroke-width="1.5" stroke-linecap="round"/>
  <rect x="40" y="34" width="12" height="12" rx="3" fill="#94a3b8"/>
  <polyline points="43.5,40 46,42.5 52,37.5" stroke="#ffffff" stroke-width="1.8" fill="none" stroke-linecap="round" stroke-linejoin="round"/>
  <polygon points="46,6 42,16 46,14 43,24 50,12 46,14" fill="#0f172a" opacity="0.2"/>
</svg>
