<svg width="56" height="56" viewBox="0 0 56 56" fill="none" xmlns="http://www.w3.org/2000/svg">
  <rect x="4" y="10" width="22" height="28" rx="3" fill="#e2e8f0"/>
  <rect x="7" y="14" width="22" height="28" rx="3" fill="#cbd5e1"/>
  <rect x="10" y="18" width="22" height="28" rx="3" fill="#ffffff" stroke="#94a3b8" stroke-width="1"/>
  <rect x="14" y="23" width="14" height="1.5" rx="0.75" fill="#94a3b8"/>
  <rect x="14" y="27.5" width="10" height="1.5" rx="0.75" fill="#cbd5e1"/>
  <rect x="14" y="32" width="14" height="1.5" rx="0.75" fill="#94a3b8"/>
  <rect x="14" y="36.5" width="8" height="1.5" rx="0.75" fill="#cbd5e1"/>
  <path d="M33 32 L38 32" stroke="#94a3b8" stroke-width="1.5" stroke-linecap="round" stroke-dasharray="2 2"/>
  <circle cx="44" cy="22" r="4" fill="#0f172a"/>
  <circle cx="50" cy="32" r="3" fill="#0f172a" opacity="0.7"/>
  <circle cx="42" cy="38" r="3.5" fill="#0f172a" opacity="0.5"/>
  <circle cx="48" cy="44" r="2.5" fill="#0f172a" opacity="0.35"/>
  <line x1="44" y1="26" x2="50" y2="29" stroke="#0f172a" stroke-width="1.2" opacity="0.4"/>
  <line x1="44" y1="26" x2="42" y2="34.5" stroke="#0f172a" stroke-width="1.2" opacity="0.4"/>
  <line x1="50" y1="35" x2="48" y2="41.5" stroke="#0f172a" stroke-width="1.2" opacity="0.4"/>
  <line x1="42" y1="41.5" x2="48" y2="41.5" stroke="#0f172a" stroke-width="1.2" opacity="0.3"/>
  <line x1="44" y1="14" x2="44" y2="16.5" stroke="#0f172a" stroke-width="1.5" stroke-linecap="round"/>
  <line x1="49" y1="17" x2="47.5" y2="19" stroke="#0f172a" stroke-width="1.5" stroke-linecap="round"/>
  <line x1="39" y1="17" x2="40.5" y2="19" stroke="#0f172a" stroke-width="1.5" stroke-linecap="round"/>
</svg>
